<svg width="100%" height="100%" viewBox="0 0 110 134" fill="none" xmlns="http://www.w3.org/2000/svg">
<g filter="url(#filter0_d_1702_18722)">
<path d="M73.4201 61.0832C73.9645 59.1892 76.0772 51.1333 71.774 42.8956C65.9153 31.7003 53.4981 30.2214 52.1631 30.0917C51.3336 30.0009 50.5429 29.9749 49.7652 29.9749C48.7024 29.9749 47.6784 30.0268 46.7322 30.1565C43.2844 30.5587 40.6662 31.5706 39.37 32.1284C37.9443 32.7511 33.7447 34.7359 30.4784 38.5758C24.4512 45.6588 21.9367 58.6444 28.8322 68.7371C33.1614 75.0677 40.2514 78.9595 47.9117 79.4784C47.9765 80.5811 48.0672 81.6059 48.158 82.5529C48.158 82.6048 48.158 82.6437 48.171 82.6956C42.753 86.2371 37.3351 89.7916 31.9171 93.3331C28.9359 90.1159 24.879 85.342 20.7701 79.0762C17.4779 74.0558 14.6523 69.7489 13.1358 65.2345C9.38989 54.104 12.1118 37.4731 24.0754 26.6021C30.5173 20.7384 38.7608 17.3396 47.3155 16.8207C50.1282 16.665 52.9667 16.8077 55.7794 17.2748C57.5422 17.5602 59.292 17.9882 61.0159 18.5331C80.6397 24.7859 85.9799 44.1799 86.278 45.3864C81.9877 50.6273 77.6974 55.8553 73.3941 61.0962L73.4201 61.0832Z" fill="#163550"/>
<path d="M53.279 50.5497V37.3306H44.6077V50.5497H31.5165V59.2283H44.6077V72.7328H47.7573C47.7962 69.0875 48.0944 64.9622 48.7813 60.4477C48.3795 60.3959 45.7483 60.0326 44.4262 57.8273C42.7412 55.0122 44.2707 50.9518 46.6945 49.8102C47.2907 49.5378 48.5091 49.1616 49.8701 49.5767C50.7644 49.8491 51.3736 50.368 51.6847 50.6664C49.9608 49.7453 48.0036 49.7713 46.5778 50.7442C45.5279 51.4707 45.1132 52.4696 44.9706 52.8458C44.3355 54.662 44.9706 56.9322 46.6297 58.1516C48.1851 59.2932 49.9608 59.0208 50.3367 58.9559C49.7664 64.0671 49.7145 68.6854 49.8571 72.7328H53.279V59.2283H66.8887V50.5497H53.279ZM49.209 58.2813C47.0574 58.2813 45.3206 56.543 45.3206 54.3895C45.3206 52.2361 47.0574 50.4978 49.209 50.4978C51.3607 50.4978 53.0845 52.2361 53.0845 54.3895C53.0845 56.543 51.3477 58.2813 49.209 58.2813Z" fill="#163550"/>
<path d="M57.1802 108.186C54.8731 110.95 52.7862 113.401 50.9586 115.516C47.0572 111.222 43.1428 106.941 39.2413 102.647C37.2971 103.737 34.4585 105.112 30.8682 106.163C26.6427 107.395 17.8418 109.951 11.4647 107.525C9.84448 106.915 8.39277 105.981 7.20031 104.632C2.4434 99.2483 4.08955 89.5578 7.62806 84.3168C8.32799 83.279 9.18344 82.3061 9.92225 81.5666C9.92225 81.5537 9.94817 81.5407 9.96113 81.5147C10.8166 80.6456 11.4906 80.1137 11.5424 80.1656C11.6461 80.2564 9.01496 82.4617 7.83545 85.8735C6.50041 89.7264 6.83739 95.7198 10.5314 98.6775C13.5774 101.116 18.3214 101.077 19.4101 101.051C21.6914 101.013 29.2609 100.649 45.7221 90.0118C46.7072 89.3761 47.7312 88.7145 48.807 87.9881C49.7402 94.5782 51.2179 99.8969 54.5749 104.839C55.3656 106.007 56.234 107.11 57.1802 108.16V108.186Z" fill="#32517D"/>
<path d="M95.6893 56.0244C89.1307 67.3624 82.3518 76.4044 77.7764 82.4885C76.1432 84.6679 74.7563 86.4581 73.6676 87.8462C68.3015 94.6828 63.3761 100.741 59.0988 105.878C58.334 105.035 57.6082 104.14 56.9472 103.206C53.3698 98.3021 51.7366 92.5293 50.933 86.5749C54.4844 84.1101 58.5155 81.1004 63.1298 77.066C73.7583 67.7776 81.1983 57.9573 81.2372 57.8924C83.2851 55.2201 94.7561 40.3275 94.7561 29.0284C94.7561 26.7582 94.2895 24.6566 93.2136 22.8015C92.9674 22.3864 91.1787 19.4676 87.7179 18.2482C81.626 16.0947 75.7544 20.9724 75.0934 21.5562C76.2858 20.194 82.7536 13.2278 91.9693 13.7077C93.6154 13.7986 97.9057 14.0191 101.353 17.1325C105.527 20.9075 105.812 26.5636 105.916 29.5603C105.994 31.7137 105.981 38.2649 95.6893 56.0503V56.0244Z" fill="#32517D"/>
<path d="M75.0412 21.5813C73.4339 13.4605 66.8884 8.21956 60.6668 8.69955C55.0156 9.14062 51.6066 14.161 51.1011 14.9264C49.105 14.8615 46.6553 14.9394 43.8816 15.4064C41.3152 15.8345 39.1247 16.4961 37.3619 17.1447C37.5952 16.1977 40.369 5.4045 50.3623 1.95379C51.9177 1.42191 56.3247 0.124651 61.2371 1.64245C68.7678 3.96454 74.2376 11.8908 75.0541 21.5554L75.0412 21.5813Z" fill="#061A32"/>
<path d="M50.9321 86.5605C50.2062 87.0665 49.5063 87.5335 48.8193 88.0005C48.5731 86.314 48.3786 84.5498 48.1842 82.6687C48.1842 82.6298 48.1842 82.5779 48.1713 82.526C48.0805 81.579 47.9898 80.5542 47.925 79.4515C47.7954 77.4408 47.7176 75.1965 47.7694 72.7188H49.8692C49.947 75.2095 50.1155 77.4797 50.271 79.5034C50.3099 80.1002 50.3618 80.658 50.4006 81.2158C50.4395 81.605 50.4654 81.9812 50.4913 82.3444C50.608 83.7584 50.7506 85.1595 50.9321 86.5605Z" fill="#061A32"/>
<path d="M56.6873 125.207C50.8546 125.713 45.0478 125.57 39.254 124.818C36.7654 124.39 34.0693 124.156 31.7233 122.677C31.1141 122.314 30.3623 121.185 30.6345 120.238C30.9197 119.11 31.8011 118.526 32.6436 118.033C34.8211 116.878 37.2579 116.152 39.3836 115.244C40.0706 114.945 40.7445 114.673 41.3019 114.336C39.9798 114.089 38.1782 114.089 36.8561 114.037C27.4589 113.661 16.6231 114.258 8.88499 107.849C7.36848 106.513 6.18895 104.775 5.45014 102.933C2.49489 95.6941 4.0892 86.8079 9.93487 81.541C9.92191 81.554 9.90895 81.567 9.89599 81.5929C9.17014 82.3323 8.31465 83.3053 7.60176 84.3431C4.06325 89.584 2.41715 99.2616 7.17405 104.658C8.36652 106.007 9.81822 106.941 11.4384 107.551C18.6969 112.04 28.5996 111.274 36.869 111.365C39.1373 111.521 45.0737 110.781 44.7497 114.478C44.2183 116.528 42.0407 117.177 40.5113 117.955C38.3985 118.902 36.3247 119.551 34.3934 120.563C37.7115 121.821 41.6778 121.925 45.2163 122.21C48.9363 122.392 52.6822 122.353 56.3763 122.003C59.7333 121.652 63.7384 121.172 66.4863 119.369C67.1992 118.824 67.7047 118.292 67.4454 117.67C66.5381 116.126 64.1143 114.608 62.7014 113.402C60.7572 111.845 58.8519 110.12 57.1539 108.2C57.7761 107.46 58.4112 106.682 59.0722 105.891C60.7313 107.746 62.6108 109.419 64.6328 110.976C66.5381 112.597 69.0527 113.986 70.271 116.347C72.6689 123.222 61.1202 124.792 56.6614 125.233L56.6873 125.207Z" fill="#061A32"/>
</g>
<defs>
<filter id="filter0_d_1702_18722" x="3.05176e-05" y="0.929688" width="109.928" height="132.576" filterUnits="userSpaceOnUse" color-interpolation-filters="sRGB">
<feFlood flood-opacity="0" result="BackgroundImageFix"/>
<feColorMatrix in="SourceAlpha" type="matrix" values="0 0 0 0 0 0 0 0 0 0 0 0 0 0 0 0 0 0 127 0" result="hardAlpha"/>
<feOffset dy="4"/>
<feGaussianBlur stdDeviation="2"/>
<feComposite in2="hardAlpha" operator="out"/>
<feColorMatrix type="matrix" values="0 0 0 0 0 0 0 0 0 0 0 0 0 0 0 0 0 0 0.25 0"/>
<feBlend mode="normal" in2="BackgroundImageFix" result="effect1_dropShadow_1702_18722"/>
<feBlend mode="normal" in="SourceGraphic" in2="effect1_dropShadow_1702_18722" result="shape"/>
</filter>
</defs>
</svg>
